<svg version="1.1" id="Layer_1" xmlns="http://www.w3.org/2000/svg" xmlns:xlink="http://www.w3.org/1999/xlink" x="0px" y="0px"
	 width="100%" viewBox="0 0 512 512" enable-background="new 0 0 512 512" xml:space="preserve">
<path fill="#AA834C" opacity="1.000000" stroke="none" 
	d="
M1.000000,477.000000 
	C1.000000,332.976685 1.000000,188.953354 1.252907,44.443928 
	C1.666662,43.905365 1.827511,43.852898 2.454290,43.860340 
	C16.725512,43.930496 30.530800,43.944096 44.336094,43.949978 
	C56.311867,43.955082 68.288086,44.009480 80.263161,43.918900 
	C84.230629,43.888889 86.340805,44.953686 86.112022,49.555851 
	C85.790649,56.020470 86.129761,62.517925 86.123421,69.219681 
	C86.060448,69.438019 86.028305,69.891388 85.991150,70.365707 
	C85.935249,196.499924 85.918236,322.159821 85.894363,447.819733 
	C85.892525,457.485382 85.842255,467.151062 85.359947,476.866821 
	C56.936932,476.944611 28.968466,476.972290 1.000000,477.000000 
M34.999844,218.500000 
	C34.999844,278.552704 34.999844,338.605408 34.999844,398.582581 
	C41.069317,398.582581 46.448986,398.582581 51.747849,398.582581 
	C51.747849,305.616791 51.747849,213.068726 51.747849,120.328392 
	C46.117016,120.328392 40.740993,120.328392 34.999844,120.328392 
	C34.999844,152.937027 34.999844,185.218506 34.999844,218.500000 
z"/>
<path fill="#295F91" opacity="1.000000" stroke="none" 
	d="
M513.000000,64.000000 
	C513.000000,201.356659 513.000000,338.713318 512.531372,476.536133 
	C483.396606,476.976532 454.730530,476.950836 426.026520,476.464142 
	C425.983521,340.981415 425.977753,205.959625 425.979370,70.937859 
	C425.979401,68.608154 426.069122,66.278458 426.577850,63.970798 
	C455.692474,63.995228 484.346252,63.997612 513.000000,64.000000 
M443.526398,123.673576 
	C443.350891,124.979492 443.022095,126.285370 443.021729,127.591339 
	C442.998840,207.044434 442.994049,286.497559 443.064331,365.950592 
	C443.065826,367.627594 443.962799,369.303833 445.323944,370.985413 
	C451.151306,370.993591 457.003326,370.673615 462.798584,371.109100 
	C467.847107,371.488464 469.265198,369.868103 469.254913,364.756989 
	C469.096893,286.170227 469.150604,207.583084 469.140381,128.996017 
	C469.140137,127.221992 468.968109,125.447983 468.894348,124.023857 
	C460.573425,124.023857 452.781860,124.023857 444.751984,123.609436 
	C444.548340,123.358513 444.303711,123.157501 443.526398,123.673576 
M496.942139,196.985184 
	C493.951752,196.996887 490.939117,197.243942 487.976379,196.963440 
	C483.848724,196.572617 482.534851,198.096863 482.580078,202.266098 
	C482.776642,220.376831 482.663879,238.490921 482.663727,256.603790 
	C482.663635,270.396149 482.595245,284.189301 482.754364,297.979828 
	C482.773315,299.625458 483.975342,302.636780 484.725403,302.667542 
	C489.112274,302.847717 493.527832,302.328796 498.451904,301.383667 
	C498.633118,300.416016 498.971832,299.448547 498.972687,298.480713 
	C499.001862,265.608246 499.008209,232.735748 498.952179,199.863327 
	C498.950653,198.962296 498.228027,198.062500 496.942139,196.985184 
z"/>
<path fill="#7D98AD" opacity="1.000000" stroke="none" 
	d="
M167.000000,1.000000 
	C185.020889,1.000000 203.041794,1.000000 221.531342,1.468657 
	C222.000153,14.209212 221.936661,26.481884 222.085815,38.751972 
	C222.103302,40.189388 223.292694,41.612560 223.707108,43.456566 
	C223.410233,46.031349 223.288300,48.191887 223.287979,50.352440 
	C223.267548,190.717850 223.256622,331.083252 223.249084,471.448669 
	C223.248993,473.279266 223.303055,475.109863 222.907501,476.886475 
	C204.133682,476.834198 185.784225,476.835968 167.411407,476.381348 
	C167.376968,343.237457 167.367996,210.549957 167.337585,77.862465 
	C167.337051,75.548119 167.078369,73.233849 167.020935,70.461113 
	C167.067795,47.001789 167.033905,24.000895 167.000000,1.000000 
z"/>
<path fill="#4F301F" opacity="1.000000" stroke="none" 
	d="
M167.434753,476.837769 
	C185.784225,476.835968 204.133682,476.834198 223.427124,476.899170 
	C253.563339,476.952545 282.755585,476.939240 312.205750,476.936401 
	C312.635590,476.940887 312.807526,476.934845 313.449097,476.947144 
	C351.300629,476.952026 388.682526,476.938599 426.064453,476.925110 
	C454.730530,476.950836 483.396606,476.976532 512.531372,477.001129 
	C513.000000,488.990997 513.000000,500.982025 513.000000,512.955566 
	C342.333313,512.955566 171.666656,512.955566 1.000000,512.955566 
	C1.000000,501.253204 1.000000,489.595245 1.000000,477.468658 
	C28.968466,476.972290 56.936932,476.944611 85.841995,476.920288 
	C113.663986,476.895020 140.549377,476.866394 167.434753,476.837769 
z"/>
<path fill="#FFFFFF" opacity="1.000000" stroke="none" 
	d="
M223.938812,43.042328 
	C223.292694,41.612560 222.103302,40.189388 222.085815,38.751972 
	C221.936661,26.481884 222.000153,14.209212 222.000000,1.468657 
	C318.880005,1.000000 415.760010,1.000000 513.000000,1.000000 
	C513.000000,21.686169 513.000000,42.374428 513.000000,63.531342 
	C484.346252,63.997612 455.692474,63.995228 426.526123,63.505054 
	C426.013489,52.432823 426.013489,41.848385 426.013489,31.000002 
	C423.597076,31.000002 421.790771,31.000004 419.984436,31.000004 
	C388.031555,31.000004 356.078674,31.000000 324.125793,31.000000 
	C312.071106,30.999998 312.071106,31.000000 311.508423,42.959404 
	C282.008057,43.010471 252.973434,43.026398 223.938812,43.042328 
z"/>
<path fill="#FFFFFF" opacity="1.000000" stroke="none" 
	d="
M166.531342,1.000000 
	C167.033905,24.000895 167.067795,47.001789 166.596863,70.495033 
	C163.353973,70.645386 160.617447,70.020790 157.877579,70.005753 
	C134.251907,69.876129 110.625633,69.856392 86.887451,69.647781 
	C86.604301,69.297882 86.407974,69.134438 86.186394,69.001335 
	C86.129761,62.517925 85.790649,56.020470 86.112022,49.555851 
	C86.340805,44.953686 84.230629,43.888889 80.263161,43.918900 
	C68.288086,44.009480 56.311867,43.955082 44.336094,43.949978 
	C30.530800,43.944096 16.725512,43.930496 2.314938,43.696571 
	C1.513681,43.254364 1.277129,43.096733 1.000000,43.000000 
	C1.000000,29.029507 1.000000,15.059013 1.000000,1.000000 
	C56.020863,1.000000 111.041771,1.000000 166.531342,1.000000 
z"/>
<path fill="#F7F4EF" opacity="1.000000" stroke="none" 
	d="
M1.000000,43.250000 
	C1.277129,43.096733 1.513681,43.254364 1.849008,43.636658 
	C1.827511,43.852898 1.666662,43.905365 1.252907,43.978912 
	C1.000000,44.000000 1.000000,43.500000 1.000000,43.250000 
z"/>
<path fill="#92381D" opacity="1.000000" stroke="none" 
	d="
M86.999535,69.803894 
	C110.625633,69.856392 134.251907,69.876129 157.877579,70.005753 
	C160.617447,70.020790 163.353973,70.645386 166.516098,70.953461 
	C167.078369,73.233849 167.337051,75.548119 167.337585,77.862465 
	C167.367996,210.549957 167.376968,343.237457 167.411407,476.381348 
	C140.549377,476.866394 113.663986,476.895020 86.296555,476.870178 
	C85.842255,467.151062 85.892525,457.485382 85.894363,447.819733 
	C85.918236,322.159821 85.935249,196.499924 86.238876,70.399139 
	C86.682358,69.906807 86.840942,69.855354 86.999535,69.803894 
M120.754066,177.499985 
	C120.754066,258.880890 120.754066,340.261810 120.754066,421.998993 
	C124.889801,421.998993 128.038391,422.000580 131.186966,421.998688 
	C138.267395,421.994446 138.276764,421.993744 138.276917,415.023895 
	C138.279068,321.868652 138.278412,228.713425 138.278442,135.558182 
	C138.278458,122.840393 138.277206,123.002380 125.784309,122.907204 
	C121.812340,122.876945 120.635986,124.095016 120.679443,128.006760 
	C120.859001,144.169449 120.754005,160.335281 120.754066,177.499985 
z"/>
<path fill="#000000" opacity="1.000000" stroke="none" 
	d="
M34.999844,218.000000 
	C34.999844,185.218506 34.999844,152.937027 34.999844,120.328392 
	C40.740993,120.328392 46.117016,120.328392 51.747849,120.328392 
	C51.747849,213.068726 51.747849,305.616791 51.747849,398.582581 
	C46.448986,398.582581 41.069317,398.582581 34.999844,398.582581 
	C34.999844,338.605408 34.999844,278.552704 34.999844,218.000000 
z"/>
<path fill="#F7F4EF" opacity="1.000000" stroke="none" 
	d="
M86.887451,69.647781 
	C86.840942,69.855354 86.682358,69.906807 86.276031,69.924820 
	C86.028305,69.891388 86.060448,69.438019 86.123421,69.219681 
	C86.407974,69.134438 86.604301,69.297882 86.887451,69.647781 
z"/>
<path fill="#344E45" opacity="1.000000" stroke="none" 
	d="
M311.974121,42.924271 
	C312.071106,31.000000 312.071106,30.999998 324.125793,31.000000 
	C356.078674,31.000000 388.031555,31.000004 419.984436,31.000004 
	C421.790771,31.000004 423.597076,31.000002 426.013489,31.000002 
	C426.013489,41.848385 426.013489,52.432823 426.065247,63.483009 
	C426.069122,66.278458 425.979401,68.608154 425.979370,70.937859 
	C425.977753,205.959625 425.983521,340.981415 426.026520,476.464172 
	C388.682526,476.938599 351.300629,476.952026 313.338379,476.779022 
	C312.593140,476.377167 312.401611,476.188812 312.139496,475.559143 
	C312.076996,365.008759 312.062195,254.926834 312.037659,144.844894 
	C312.030090,110.871353 311.996063,76.897812 311.974121,42.924271 
M360.791870,321.499969 
	C360.791870,348.560089 360.791870,375.620178 360.791870,402.982910 
	C365.966248,402.982910 370.278564,402.987640 374.590851,402.981842 
	C381.241211,402.972870 381.254364,402.969788 381.254578,396.342072 
	C381.257446,299.059662 381.257904,201.777237 381.245911,104.494820 
	C381.245697,102.747902 381.085266,101.000999 381.003998,99.343651 
	C373.991547,99.343651 367.579376,99.343651 360.791779,99.343651 
	C360.791779,173.294174 360.791779,246.897049 360.791870,321.499969 
z"/>
<path fill="#A0A0A0" opacity="1.000000" stroke="none" 
	d="
M444.990326,124.023857 
	C452.781860,124.023857 460.573425,124.023857 468.894348,124.023857 
	C468.968109,125.447983 469.140137,127.221992 469.140381,128.996017 
	C469.150604,207.583084 469.096893,286.170227 469.254913,364.756989 
	C469.265198,369.868103 467.847107,371.488464 462.798584,371.109100 
	C457.003326,370.673615 451.151306,370.993591 444.831512,370.516602 
	C444.323761,323.079895 444.289551,276.112030 444.299347,229.144180 
	C444.306641,194.168732 444.370880,159.193283 444.563049,124.193787 
	C444.716370,124.169739 444.990326,124.023857 444.990326,124.023857 
z"/>
<path fill="#A0A0A0" opacity="1.000000" stroke="none" 
	d="
M497.933716,302.045776 
	C493.527832,302.328796 489.112274,302.847717 484.725403,302.667542 
	C483.975342,302.636780 482.773315,299.625458 482.754364,297.979828 
	C482.595245,284.189301 482.663635,270.396149 482.663727,256.603790 
	C482.663879,238.490921 482.776642,220.376831 482.580078,202.266098 
	C482.534851,198.096863 483.848724,196.572617 487.976379,196.963440 
	C490.939117,197.243942 493.951752,196.996887 497.356628,197.529175 
	C497.825348,232.730698 497.879547,267.388245 497.933716,302.045776 
z"/>
<path fill="#035990" opacity="1.000000" stroke="none" 
	d="
M444.409760,124.217842 
	C444.370880,159.193283 444.306641,194.168732 444.299347,229.144180 
	C444.289551,276.112030 444.323761,323.079895 444.390564,370.514099 
	C443.962799,369.303833 443.065826,367.627594 443.064331,365.950592 
	C442.994049,286.497559 442.998840,207.044434 443.021729,127.591339 
	C443.022095,126.285370 443.350891,124.979492 443.840149,123.652504 
	C444.239227,123.826904 444.324493,124.022369 444.409760,124.217842 
z"/>
<path fill="#035990" opacity="1.000000" stroke="none" 
	d="
M498.192810,301.714722 
	C497.879547,267.388245 497.825348,232.730698 497.806396,197.617645 
	C498.228027,198.062500 498.950653,198.962296 498.952179,199.863327 
	C499.008209,232.735748 499.001862,265.608246 498.972687,298.480713 
	C498.971832,299.448547 498.633118,300.416016 498.192810,301.714722 
z"/>
<path fill="#637896" opacity="1.000000" stroke="none" 
	d="
M444.563049,124.193787 
	C444.324493,124.022369 444.239227,123.826904 444.085999,123.318924 
	C444.303711,123.157501 444.548340,123.358513 444.871155,123.816650 
	C444.990326,124.023857 444.716370,124.169739 444.563049,124.193787 
z"/>
<path fill="#000000" opacity="1.000000" stroke="none" 
	d="
M311.508423,42.959404 
	C311.996063,76.897812 312.030090,110.871353 312.037659,144.844894 
	C312.062195,254.926834 312.076996,365.008759 312.069397,475.780762 
	C312.043243,476.470856 311.947845,476.925934 311.947845,476.925934 
	C282.755585,476.939240 253.563339,476.952545 223.851471,476.953156 
	C223.303055,475.109863 223.248993,473.279266 223.249084,471.448669 
	C223.256622,331.083252 223.267548,190.717850 223.287979,50.352440 
	C223.288300,48.191887 223.410233,46.031349 223.707123,43.456566 
	C252.973434,43.026398 282.008057,43.010471 311.508423,42.959404 
M279.532867,417.904419 
	C279.671783,417.597839 279.810699,417.291290 280.467468,416.337463 
	C280.507507,415.673248 280.582550,415.009033 280.582611,414.344818 
	C280.592712,311.047211 280.598663,207.749603 280.589691,104.451996 
	C280.589569,103.035240 280.398651,101.618500 280.307617,100.352402 
	C273.058838,100.352402 266.320496,100.352402 259.638153,100.352402 
	C259.638153,206.404282 259.638153,312.086182 259.638153,417.850433 
	C266.354645,417.850433 272.674103,417.850433 279.532867,417.904419 
z"/>
<path fill="#2C463F" opacity="1.000000" stroke="none" 
	d="
M312.205750,476.936401 
	C311.947845,476.925934 312.043243,476.470856 312.113342,476.249207 
	C312.401611,476.188812 312.593140,476.377167 312.868774,476.760712 
	C312.807526,476.934845 312.635590,476.940887 312.205750,476.936401 
z"/>
<path fill="#000000" opacity="1.000000" stroke="none" 
	d="
M120.753815,176.999969 
	C120.754005,160.335281 120.859001,144.169449 120.679443,128.006760 
	C120.635986,124.095016 121.812340,122.876945 125.784309,122.907204 
	C138.277206,123.002380 138.278458,122.840393 138.278442,135.558182 
	C138.278412,228.713425 138.279068,321.868652 138.276917,415.023895 
	C138.276764,421.993744 138.267395,421.994446 131.186966,421.998688 
	C128.038391,422.000580 124.889801,421.998993 120.754066,421.998993 
	C120.754066,340.261810 120.754066,258.880890 120.753815,176.999969 
z"/>
<path fill="#DCC486" opacity="1.000000" stroke="none" 
	d="
M360.791809,320.999939 
	C360.791779,246.897049 360.791779,173.294174 360.791779,99.343651 
	C367.579376,99.343651 373.991547,99.343651 381.003998,99.343651 
	C381.085266,101.000999 381.245697,102.747902 381.245911,104.494820 
	C381.257904,201.777237 381.257446,299.059662 381.254578,396.342072 
	C381.254364,402.969788 381.241211,402.972870 374.590851,402.981842 
	C370.278564,402.987640 365.966248,402.982910 360.791870,402.982910 
	C360.791870,375.620178 360.791870,348.560089 360.791809,320.999939 
z"/>
<path fill="#DDC486" opacity="1.000000" stroke="none" 
	d="
M278.993591,417.850433 
	C272.674103,417.850433 266.354645,417.850433 259.638153,417.850433 
	C259.638153,312.086182 259.638153,206.404282 259.638153,100.352402 
	C266.320496,100.352402 273.058838,100.352402 280.307617,100.352402 
	C280.398651,101.618500 280.589569,103.035240 280.589691,104.451996 
	C280.598663,207.749603 280.592712,311.047211 280.582611,414.344818 
	C280.582550,415.009033 280.507507,415.673248 280.022125,416.772766 
	C279.354309,417.396729 279.159912,417.610840 278.993591,417.850433 
z"/>
<path fill="#C9B379" opacity="1.000000" stroke="none" 
	d="
M279.263245,417.877441 
	C279.159912,417.610840 279.354309,417.396729 279.763214,417.096436 
	C279.810699,417.291290 279.671783,417.597839 279.263245,417.877441 
z"/>
</svg>